<svg viewBox="0 0 800 800" xmlns="http://www.w3.org/2000/svg" class="doodleSvg">
  <g fill="none" stroke="currentColor" stroke-width="12" stroke-linecap="round" stroke-linejoin="round">
    <path d="M250 260 C250 180, 350 130, 400 170 C450 130, 550 180, 550 260 C550 380, 480 430, 400 430 C320 430, 250 380, 250 260 Z" />
    <path d="M300 200 C280 140, 330 110, 360 160" />
    <path d="M500 200 C520 140, 470 110, 440 160" />
    <path d="M320 430 C280 520, 300 640, 400 650 C500 640, 520 520, 480 430" />
    <path d="M480 560 C580 580, 600 720, 500 740" />
    <path d="M390 320 C395 330, 405 330, 410 320" />
    <path d="M330 330 C280 320, 260 320, 230 330" />
    <path d="M330 350 C280 350, 260 360, 230 370" />
    <path d="M470 330 C520 320, 540 320, 570 330" />
    <path d="M470 350 C520 350, 540 360, 570 370" />
  </g>
</svg>
